<svg xmlns="http://www.w3.org/2000/svg" xmlns:xlink="http://www.w3.org/1999/xlink" version="1.1" x="0px" y="0px" viewBox="0 0 1920 1080" style="enable-background:new 0 0 1920 1080;" xml:space="preserve">
<style xmlns="http://www.w3.org/2000/svg" type="text/css">
	.st0{opacity:0.1;fill:#34C3EA;}
	.st1{fill:#CCE9FF;}
	.st2{fill:#EFACA5;}
	.st3{fill:#E7AD87;}
	.st4{fill:#2A94F4;}
	.st5{fill:#0B4870;}
	.st6{fill:#FAB9AF;}
	.st7{fill:#FFBE55;}
	.st8{fill:#FFFFFF;}
	.st9{fill:#31A1F4;}
	.st10{opacity:0.39;fill:#FFFFFF;}
</style>
<g xmlns="http://www.w3.org/2000/svg" id="Background">
	<path class="st0" d="M754.6,700.1c-46.8-66.8-116.4-148.9-98-290.4c21-161.7,264.2-418.4,524.3-225.9   c102.2,75.7,107.8,248.2,244.4,204s228.5,299,23.3,343.5S843.4,826.9,754.6,700.1z"/>
	<ellipse class="st0" cx="1101.3" cy="743.7" rx="361.3" ry="36.4"/>
</g>
<g xmlns="http://www.w3.org/2000/svg" id="Character">
	<g>
		<g>
			<path class="st1" d="M1219.6,587.2c-10.7-7.8-89.3-4.9-96.6,0c-7.4,4.9,8.3,18.8,33.1,32.8c10.4,5.9,16.8,11.7,31,0.9     C1201.3,610.2,1226.8,592.4,1219.6,587.2z"/>
			<rect x="1160.6" y="615.3" class="st1" width="20.9" height="94.7"/>
			<path class="st1" d="M1105.4,726.8h128.8c2.3,0,4.1-1.8,4.1-4.1v0c0-2-1.5-3.7-3.4-4l-53.3-8.6h-20.9l-55.8,8.6     c-2,0.3-3.5,2-3.5,4l0,0C1101.3,724.9,1103.1,726.8,1105.4,726.8z"/>
			<path class="st1" d="M1219.6,314.7c-64.9-2.8-83.9,56.4-87.6,94.5c-3.7,38-13.9,72.4-43.7,88.4c-29.9,16-58.1,23.3-40.9,49.1     c17.2,25.8,76.3,51.8,129.4,50.5c53.1-1.2,107.4-29.7,122.2-105.8C1313.7,415.3,1283.9,317.5,1219.6,314.7z"/>
		</g>
	</g>
	<g>
		<g>
			<g>
				<polygon class="st2" points="1162.8,713.1 1166.7,727.1 1147.8,732.8 1141.8,715.6     "/>
				<polygon class="st2" points="1048.3,703 1048.3,714.2 1065.1,714.2 1067,703     "/>
				<g>
					<g>
						<path class="st2" d="M1177.3,378.5l-25.4,62.6l-0.6,1.4c-1.5,3.7-5.1,6-8.9,6l-72.2-0.5c-2.9,0-5.3-2.4-5.3-5.3        c0-2.6,2-4.8,4.5-5.2L1141,427l-9.5,7.4l17.1-65.4c2.1-8.1,10.4-13,18.5-10.8c8.1,2.1,13,10.4,10.8,18.5        C1177.8,377.3,1177.5,377.9,1177.3,378.5z"/>
						<path class="st3" d="M1078.1,436.2l-24.7-0.5c-6.1,0-11,5.5-11,12.3v0h36L1078.1,436.2z"/>
					</g>
					<g>
						<g>
							<path class="st4" d="M1137.4,386.1l39.5,9.6l6.5-35.2c1.7-9.5-4.8-18.5-14.5-19.9l0,0c-8.2-1.2-16,3.4-18.8,11.1         L1137.4,386.1z"/>
						</g>
					</g>
				</g>
				<path class="st5" d="M1178.2,454.6l-121.7,61.8c-11.3,5.7-18.1,17.6-17.4,30.3l9.2,156.4h18.7l25.2-167.3l94.8-66.5      L1178.2,454.6z"/>
				<path class="st5" d="M1156.7,241c0,0,39.9-17.7,61.3,39.5c19.9,53-2.2,42.6-34.4,42.8c-26.2,0.2-72.5,25-60.8-7.7      c8.4-23.3,4-38.1,4-38.1L1156.7,241z"/>
				<path class="st4" d="M1183.7,324.5l-17.5,7.8c-10.4,4.6-17.1,15-17,26.4c0.3,23,5.5,80,24.9,101.9h59.2      c9.2-40.4,3.9-102.5,3.9-102.5c0.6-15.2-10.6-28.4-25.7-30.2L1183.7,324.5z"/>
				<g>
					<g>
						<g>
							<path class="st2" d="M1185.4,343.4L1185.4,343.4c-6.2,0.7-11.8-3.7-12.5-9.8L1168,296l22.5-2.6l4.8,37.3         C1196.1,337,1191.6,342.7,1185.4,343.4z"/>
							<path class="st6" d="M1166.8,324l-0.9,0.1c-15,2-28.7-8.6-30.7-23.6l-4.3-32.8l55.2-7.2l4.3,32.8         C1192.3,308.3,1181.8,322.1,1166.8,324z"/>
						</g>
						<path class="st5" d="M1192.2,280.7l-4.7,9.8c0,0-6.3,5.4-8.1-8.2c-1.5-11.6-9.9-9.6-9.9-9.6s-28.8,21.8-45.7,6.8        c-13.3-11.8,8.2-33.4,32.9-38.5l32.4,14.1L1192.2,280.7z"/>
						<path class="st6" d="M1184,289.2c0.7,6,2.2,10.4,7.2,9.8c0,0,5-5,5.7-12.1c0.7-6-0.2-10.2-5.2-9.6        C1186.8,277.9,1183.3,283.2,1184,289.2z"/>
					</g>
				</g>
				<path class="st5" d="M1233.3,460.6h-59.2l-94.7,57.2c-11.2,6.7-15.6,20.7-10.3,32.7l72.7,165.1l21-2.5l-39.1-159.3      c32.8-1.4,93.6-6.3,109.5-24.1C1260.2,499.7,1233.3,460.6,1233.3,460.6z"/>
				<g>
					<path class="st7" d="M1031.5,357l33.8,90.7H955.6l-31.2-85.5c-0.9-2.6,1-5.3,3.7-5.3H1031.5z"/>
					<path class="st7" d="M1031.5,357h5.3c2.8,0,5.3,1.8,6.3,4.4l31.8,86.3h-9.6L1031.5,357z"/>
					<path class="st7" d="M958.2,456.5h107.1v-8.7H955.9v6.4C955.9,455.4,956.9,456.5,958.2,456.5z"/>
					<path class="st7" d="M1065.3,456.5h67.7c2.4,0,4.4-2,4.4-4.4l0,0c0-2.4-2-4.4-4.4-4.4h-67.7V456.5z"/>
					<path class="st8" d="M1004,402.1c2.1,6.3-0.4,12.7-5.6,14.4c-5.2,1.7-11-2-13.1-8.3c-2.1-6.3,0.4-12.7,5.6-14.4       C996.1,392.1,1002,395.8,1004,402.1z"/>
				</g>
				<g>
					<g>
						<path class="st6" d="M1223.6,376.8l-25.4,63.8l-0.6,1.4c-1.5,3.8-5.2,6.1-9,6.1l-72.3-0.5c-2.9,0-5.3-2.4-5.3-5.4        c0-2.7,2-4.9,4.6-5.2l71.5-10.6l-9.6,7.5l17-66.6c2.1-8.2,10.4-13.1,18.6-11c8.2,2.1,13.1,10.4,11,18.6        C1224.1,375.5,1223.8,376.2,1223.6,376.8z"/>
						<path class="st6" d="M1124.2,435.7l-24.7-0.5c-6.1,0-11,5.6-11,12.5l0,0h36L1124.2,435.7z"/>
					</g>
					<g>
						<g>
							<path class="st9" d="M1183.5,384.7l39.5,9.8l6.5-35.9c1.7-9.6-4.8-18.8-14.5-20.2l0,0c-8.2-1.2-16,3.5-18.8,11.3         L1183.5,384.7z"/>
						</g>
					</g>
				</g>
				<path class="st5" d="M1135.4,719.4l-9.2,9.1l-20.7,5c-2.1,0.5-3.9,2.1-4.6,4.2l-1.1,3c-0.5,1.5,0.6,3,2.2,3l66.7-1.6      c2.2,0,3.9-1.9,3.7-4.1l-5.3-18.9l-10.1,2.4c-3.4,1.1-7.1,0.7-10.1-1l-3.6-2.1C1140.8,716.9,1137.6,717.3,1135.4,719.4z"/>
				<path class="st5" d="M1039.8,706.3l-9.2,9.1l-20.7,5c-2.1,0.5-3.9,2.1-4.6,4.2l-1.1,3c-0.5,1.5,0.6,3,2.2,3l60.3-1.3      c2.2,0,3.9-1.9,3.7-4.1l-1.6-19.3l-7.4,2.5c-3.4,1.1-7.1,0.7-10.1-1l-3.6-2.1C1045.1,703.8,1041.9,704.2,1039.8,706.3z"/>
			</g>
		</g>
	</g>
</g>
<g xmlns="http://www.w3.org/2000/svg" id="Objects">
	<g>
		<path class="st5" d="M973.2,743.7c0.2,0,0.5,0,0.7-0.1c2.3-0.4,3.9-2.3,3.5-4.4l-54.5-266.3c-0.4-2.1-2.6-3.5-5-3.1    c-2.3,0.4-3.9,2.3-3.5,4.4L969,740.5C969.3,742.4,971.1,743.7,973.2,743.7z"/>
		<path class="st5" d="M832.6,743.7c2.1,0,3.9-1.3,4.2-3.2L895,474.2c0.4-2.1-1.2-4.1-3.5-4.4c-2.4-0.3-4.6,1.1-5,3.1l-58.2,266.3    c-0.4,2.1,1.2,4.1,3.5,4.4C832.1,743.7,832.3,743.7,832.6,743.7z"/>
		
			<rect x="856.8" y="455.1" transform="matrix(-1 -3.687285e-11 3.687285e-11 -1 2225.239 934.9241)" class="st5" width="511.7" height="24.8"/>
		
			<rect x="850.3" y="642.5" transform="matrix(-1 -4.116719e-11 4.116719e-11 -1 1805.4528 1292.6381)" class="st5" width="104.9" height="7.5"/>
		<path class="st5" d="M1364.2,743.7c0.2,0,0.5,0,0.7-0.1c2.3-0.4,3.9-2.3,3.5-4.4L1314,472.9c-0.4-2.1-2.6-3.5-5-3.1    c-2.3,0.4-3.9,2.3-3.5,4.4l54.5,266.3C1360.3,742.4,1362.2,743.7,1364.2,743.7z"/>
		<path class="st5" d="M1223.6,743.7c2.1,0,3.9-1.3,4.2-3.2l58.2-266.3c0.4-2.1-1.2-4.1-3.5-4.4c-2.4-0.3-4.6,1.1-5,3.1l-58.2,266.3    c-0.4,2.1,1.2,4.1,3.5,4.4C1223.1,743.7,1223.3,743.7,1223.6,743.7z"/>
		
			<rect x="1241.3" y="642.5" transform="matrix(-1 -4.116719e-11 4.116719e-11 -1 2587.5032 1292.6381)" class="st5" width="104.9" height="7.5"/>
	</g>
	<g>
		<path class="st7" d="M900.3,359.4h-60.9c-5.8,0-10.5-4.7-10.5-10.5v-60.9c0-5.8,4.7-10.5,10.5-10.5h60.9c5.8,0,10.5,4.7,10.5,10.5    v60.9C910.8,354.7,906.1,359.4,900.3,359.4z"/>
		<path class="st10" d="M890,348.3h-53.4c-4.6,0-8.4-3.8-8.4-8.4v-53.4c0-4.6,3.8-8.4,8.4-8.4H890c4.6,0,8.4,3.8,8.4,8.4v53.4    C898.4,344.5,894.7,348.3,890,348.3z"/>
		<g>
			<path class="st8" d="M877.3,328.4l-3-8.5h-15l-3,8.5h-9.4l14.6-35.9h10.7l14.6,35.9H877.3z M872.3,313.6     c-2.8-7.7-4.3-12.1-4.7-13.1c-0.3-1-0.6-1.8-0.7-2.4c-0.6,2.1-2.4,7.2-5.3,15.5H872.3z"/>
		</g>
	</g>
	<g>
		<path class="st7" d="M1049,189.6H988c-5.8,0-10.5-4.7-10.5-10.5v-60.9c0-5.8,4.7-10.5,10.5-10.5h60.9c5.8,0,10.5,4.7,10.5,10.5    v60.9C1059.4,184.9,1054.7,189.6,1049,189.6z"/>
		<path class="st10" d="M1039.5,178.5h-53.4c-4.6,0-8.4-3.8-8.4-8.4v-53.4c0-4.6,3.8-8.4,8.4-8.4h53.4c4.6,0,8.4,3.8,8.4,8.4v53.4    C1047.9,174.7,1044.2,178.5,1039.5,178.5z"/>
		<g>
			<path class="st8" d="M1027.8,148.8c0,3.2-1.3,5.8-4,7.6c-2.7,1.9-6.4,2.8-11.2,2.8c-4.4,0-8.3-0.7-11.7-2.2v-7     c2.8,1.1,5.1,1.8,7.1,2.3s3.7,0.7,5.3,0.7c1.9,0,3.4-0.3,4.4-1c1-0.6,1.5-1.6,1.5-2.8c0-0.7-0.2-1.3-0.7-1.9     c-0.5-0.5-1.1-1.1-2-1.6c-0.9-0.5-2.7-1.3-5.3-2.4c-2.5-1-4.4-2-5.7-3c-1.3-0.9-2.3-2-3-3.3c-0.8-1.3-1.1-2.7-1.1-4.4     c0-3.2,1.2-5.6,3.7-7.5c2.5-1.8,5.9-2.7,10.3-2.7c2.1,0,4.2,0.2,6.1,0.7s4,1.1,6.1,1.9l-2.8,5.9c-2.2-0.8-4-1.3-5.5-1.6     c-1.4-0.3-2.9-0.5-4.2-0.5c-1.7,0-2.9,0.3-3.8,1c-0.9,0.7-1.3,1.5-1.3,2.6c0,0.7,0.2,1.3,0.5,1.7c0.4,0.5,0.9,1,1.7,1.4     s2.6,1.3,5.5,2.5c3.9,1.6,6.5,3.2,7.9,4.8C1027.1,144.5,1027.8,146.4,1027.8,148.8z"/>
		</g>
	</g>
	<g>
		<path class="st7" d="M1459.5,454.7h-60.9c-5.8,0-10.5-4.7-10.5-10.5v-60.9c0-5.8,4.7-10.5,10.5-10.5h60.9    c5.8,0,10.5,4.7,10.5,10.5v60.9C1470,450,1465.3,454.7,1459.5,454.7z"/>
		<path class="st10" d="M1450.1,443.6h-53.4c-4.6,0-8.4-3.8-8.4-8.4v-53.4c0-4.6,3.8-8.4,8.4-8.4h53.4c4.6,0,8.4,3.8,8.4,8.4v53.4    C1458.5,439.9,1454.7,443.6,1450.1,443.6z"/>
		<g>
			<path class="st8" d="M1422.6,423.8h-8.6v-35.7h23.6v6.2h-15v9.2h14v6.2h-14V423.8z"/>
		</g>
	</g>
	<g>
		<path class="st7" d="M1335.9,254.7H1275c-5.8,0-10.5-4.7-10.5-10.5v-60.9c0-5.8,4.7-10.5,10.5-10.5h60.9c5.8,0,10.5,4.7,10.5,10.5    v60.9C1346.4,250,1341.7,254.7,1335.9,254.7z"/>
		<path class="st10" d="M1326.1,243h-53.4c-4.6,0-8.4-3.8-8.4-8.4v-53.4c0-4.6,3.8-8.4,8.4-8.4h53.4c4.6,0,8.4,3.8,8.4,8.4v53.4    C1334.5,239.2,1330.8,243,1326.1,243z"/>
		<g>
			<path class="st8" d="M1322.3,205c0,5.9-1.9,10.4-5.8,13.5s-9.4,4.7-16.7,4.7h-11.7v-35.7h12.9c6.7,0,12,1.5,15.7,4.6     C1320.4,195.1,1322.3,199.4,1322.3,205z M1313.2,205.2c0-7.7-3.9-11.5-11.7-11.5h-4.7v23.3h3.8     C1309,216.9,1313.2,213,1313.2,205.2z"/>
		</g>
	</g>
</g>
</svg>